<?xml version="1.0" encoding="UTF-8" standalone="no"?>
<!DOCTYPE svg PUBLIC "-//W3C//DTD SVG 1.1//EN" "http://www.w3.org/Graphics/SVG/1.1/DTD/svg11.dtd">
<svg width="100%" height="100%" viewBox="-36 -1 801 801" version="1.1" xmlns="http://www.w3.org/2000/svg" xmlns:xlink="http://www.w3.org/1999/xlink" xml:space="preserve" xmlns:serif="http://www.serif.com/" style="fill-rule:evenodd;clip-rule:evenodd;stroke-linejoin:round;stroke-miterlimit:2;">
    <path id="white-outline" serif:id="white outline" d="M141,36L128,39L124,41L118,45L109,56L105,62L102,71L100,75L98,84L97,94L95,118L96,133L96,139L97,146L99,155L101,162L104,172L106,178L109,184L112,191L116,198L120,204L126,212L130,217L135,223L142,230L145,232L157,242L160,243L162,245L172,251L178,253L175,256L173,260L170,263L164,271L160,276L157,280L154,283L152,286L127,286L117,287L114,288L87,291L81,291L72,293L59,295L56,296L53,298L49,301L47,305L45,307L42,313L40,322L40,356L42,362L45,368L53,376L53,386L54,388L56,409L57,419L58,423L60,433L62,441L63,444L69,458L72,463L79,470L82,474L85,477L90,480L93,482L94,484L90,489L87,494L83,501L78,506L75,511L71,515L69,519L63,528L60,533L58,537L56,543L54,546L52,558L49,583L49,590L50,600L51,605L53,614L56,622L58,628L62,636L66,640L66,642L68,644L68,651L70,661L72,665L73,669L74,672L77,676L80,681L86,686L89,689L95,692L97,699L99,701L102,706L110,714L117,722L123,726L125,728L129,730L137,735L141,736L144,738L154,742L159,743L162,744L175,745L176,746L335,747L340,752L348,758L351,761L361,764L469,764L478,761L483,758L493,754L496,753L502,749L509,746L514,744L520,741L527,737L529,736L535,732L540,730L550,724L553,721L559,718L565,714L570,709L574,706L579,702L582,700L584,698L591,690L594,689L602,681L605,676L614,668L616,664L619,661L625,654L628,649L631,645L633,641L635,639L638,634L641,631L645,624L648,618L652,611L655,606L658,598L661,593L663,587L666,580L667,577L669,573L671,566L673,562L675,555L676,552L678,545L680,537L681,535L682,531L682,526L684,520L686,504L687,500L689,480L690,466L690,425L689,418L689,413L688,404L687,397L685,388L684,381L683,372L682,366L680,357L678,349L677,346L674,338L674,335L670,323L668,316L666,311L661,300L659,293L656,286L653,281L649,272L645,266L643,260L636,248L634,246L633,241L630,238L628,233L626,231L624,227L622,225L620,221L615,214L607,204L591,188L592,182L594,177L595,170L596,166L598,160L599,153L601,146L602,139L603,121L601,104L600,95L599,84L597,78L595,68L592,61L588,56L586,52L578,45L573,41L567,38L560,36L550,36L541,37L536,39L530,43L527,44L515,52L513,54L506,60L501,63L493,70L479,86L474,90L462,83L459,81L448,76L445,74L435,70L431,68L421,64L410,62L399,59L385,57L358,54L331,54L314,55L303,56L276,61L267,63L255,67L245,72L232,79L224,85L220,87L214,91L212,89L206,82L203,78L198,73L188,62L184,58L179,54L174,49L170,46L167,44L162,41L156,39L151,37L141,36Z" style="fill:rgb(253,253,253);fill-rule:nonzero;"/>
    <g transform="matrix(1,0,0,1,130,315)">
        <path d="M0,0L27,0L57,3L83,8L93,11L106,13L130,13L167,6L198,2L214,1L273,1L315,4L345,7L366,16L395,30L419,44L438,57L452,68L462,77L473,88L480,99L482,105L482,113L479,119L473,123L466,123L458,119L448,110L441,102L427,91L414,82L397,72L382,64L355,52L341,47L334,48L332,50L329,80L326,97L321,116L314,132L307,142L298,151L287,158L277,163L263,167L250,169L217,169L202,166L187,161L172,153L162,145L152,135L141,117L135,100L131,83L127,57L124,52L116,49L108,49L103,52L99,68L94,87L87,106L78,122L71,131L61,141L48,149L32,155L17,158L1,158L-14,155L-28,148L-36,141L-43,130L-48,116L-52,97L-55,75L-56,51L-60,45L-65,41L-65,8L-63,5L-32,2L0,0Z" style="fill:rgb(1,27,50);fill-rule:nonzero;"/>
    </g>
    <g transform="matrix(1,0,0,1,508,392)">
        <path d="M0,0L5,2L23,12L26,14L22,33L12,73L2,106L-8,132L-15,148L-25,165L-36,178L-47,188L-60,197L-75,206L-102,220L-122,229L-124,229L-124,305L-103,292L-83,278L-67,266L-53,254L-41,243L-32,234L-23,223L-15,213L-5,198L10,169L20,143L29,114L38,78L47,37L51,39L61,50L71,65L76,75L75,88L72,106L66,133L57,163L46,193L33,223L19,252L7,275L-7,299L-20,320L-35,342L-38,345L-147,345L-149,336L-149,282L-148,255L-148,242L-168,256L-187,270L-201,278L-218,284L-239,288L-242,291L-251,304L-262,316L-273,323L-280,326L-294,328L-322,328L-340,326L-356,321L-367,315L-377,307L-384,300L-391,290L-396,282L-395,280L-391,281L-369,282L-302,282L-289,278L-278,272L-261,258L-247,247L-230,233L-220,224L-216,220L-215,214L-213,217L-212,222L-212,238L-217,254L-222,262L-213,260L-199,253L-188,244L-179,233L-171,217L-168,204L-168,192L-172,179L-178,169L-188,160L-202,152L-215,147L-231,144L-256,144L-266,146L-271,145L-276,133L-278,127L-277,122L-268,116L-256,112L-244,110L-217,110L-196,113L-179,118L-160,127L-148,136L-141,143L-135,152L-130,167L-128,185L-128,197L-107,188L-102,168L-101,160L-101,139L-105,123L-109,114L-93,108L-79,100L-69,92L-66,92L-62,105L-60,118L-60,137L-62,151L-54,145L-47,137L-40,125L-29,97L-15,53L-2,7L0,0Z" style="fill:rgb(0,27,50);fill-rule:nonzero;"/>
    </g>
    <g transform="matrix(1,0,0,1,247,414)">
        <path d="M-41,57L-24,77L-31,83L-25,91L-17,102L-11,119L-9,123L7,151L33,163L54,182L47,195L44,200L34,210L20,221L8,231L-20,253L-33,259L-41,261L-108,261L-130,260L-140,256L-149,248L-153,239L-154,234L-155,219L-162,210L-167,200L-171,187L-172,181L-172,155L-168,138L-156,118L-143,99L-130,81L-125,74L-87,71L-60,71L-51,72L-41,57Z" style="fill:rgb(16,134,216);fill-rule:nonzero;"/>
    </g>
    <g transform="matrix(1,0,0,1,334,82)">
        <path d="M0,0L20,0L41,2L63,6L87,13L108,22L122,30L124,34L116,50L109,71L105,90L104,102L103,129L86,125L64,121L66,107L81,27L81,23L61,15L61,30L57,72L52,114L50,130L50,136L59,150L71,173L79,192L86,213L85,216L53,214L44,192L31,170L21,156L17,146L4,108L-7,79L-26,26L-34,4L-25,2L0,0Z" style="fill:rgb(1,28,50);fill-rule:nonzero;"/>
    </g>
    <g transform="matrix(1,0,0,1,140,65)">
        <path d="M0,0L9,2L23,12L43,32L52,43L64,58L77,76L93,99L112,128L124,147L131,158L130,162L118,174L109,185L98,197L89,208L80,218L71,229L65,236L36,233L38,228L51,213L60,202L67,195L74,187L84,177L76,174L59,168L38,157L25,147L16,139L7,128L-1,115L-8,101L-13,86L-16,68L-16,36L-14,21L-10,9L-6,3L0,0Z" style="fill:rgb(0,28,50);fill-rule:nonzero;"/>
    </g>
    <g transform="matrix(1,0,0,1,551,65)">
        <path d="M0,0L7,1L13,6L18,16L21,29L23,44L23,68L20,90L15,108L7,126L0,138L-8,148L-17,158L-29,167L-43,175L-61,182L-74,185L-81,185L-87,165L-90,148L-90,114L-86,94L-81,80L-72,65L-59,48L-48,36L-35,23L-21,12L-7,3L0,0Z" style="fill:rgb(1,27,50);fill-rule:nonzero;"/>
    </g>
    <g transform="matrix(1,0,0,1,656,391)">
        <path d="M0,0L3,0L6,11L9,38L9,70L7,93L2,124L-5,152L-14,177L-25,201L-36,221L-48,239L-58,252L-70,266L-88,284L-99,293L-106,298L-103,289L-91,258L-77,217L-67,181L-59,145L-54,110L-52,84L-51,62L-40,56L-34,48L-32,43L-32,31L-37,19L-37,16L-22,8L-4,1L0,0Z" style="fill:rgb(0,28,50);fill-rule:nonzero;"/>
    </g>
    <g transform="matrix(1,0,0,1,574,207)">
        <path d="M0,0L6,5L19,22L29,37L27,41L16,51L5,60L-10,74L-18,81L-24,87L-22,92L-9,112L-5,119L0,116L36,88L51,77L54,81L65,107L74,134L74,136L54,147L26,164L20,166L5,155L-12,144L-33,132L-58,120L-76,113L-71,83L-66,58L-65,55L-52,48L-38,38L-27,29L-13,15L-4,4L0,0Z" style="fill:rgb(0,27,50);fill-rule:nonzero;"/>
    </g>
    <g transform="matrix(1,0,0,1,339,337)">
        <path d="M16,1L56,1L30,56L-32,105L-38,98L-45,84L-47,79L16,1Z" style="fill:rgb(254,175,48);fill-rule:nonzero;"/>
    </g>
    <g transform="matrix(1,0,0,1,274,88)">
        <path d="M0,0L3,4L21,44L39,87L54,127L70,175L79,205L79,208L57,210L50,210L30,169L19,146L6,121L-6,99L-22,70L-33,50L-44,31L-43,27L-35,20L-20,10L0,0Z" style="fill:rgb(0,27,50);fill-rule:nonzero;"/>
    </g>
    <g transform="matrix(1,0,0,1,125,337)">
        <path d="M0,0L40,1L28,42L-27,87L-31,71L-34,49L0,0Z" style="fill:rgb(253,175,48);fill-rule:nonzero;"/>
    </g>
    <g transform="matrix(1,0,0,1,252,535)">
        <path d="M0,0L25,0L41,3L54,8L65,14L76,23L83,32L88,44L89,49L89,61L85,77L78,90L68,102L57,111L43,118L37,120L33,119L39,109L43,95L43,79L40,67L34,57L26,51L15,48L1,45L-5,41L-8,36L-12,12L-14,3L0,0Z" style="fill:rgb(253,253,254);fill-rule:nonzero;"/>
    </g>
    <g transform="matrix(1,0,0,1,427,344)">
        <path d="M-1,-1L5,3L9,9L10,14L10,31L-50,117L-75,118L-97,113L-95,110L-43,58L-34,47L-21,30L-8,11L-1,-1Z" style="fill:rgb(66,192,140);fill-rule:nonzero;"/>
    </g>
    <g transform="matrix(1,0,0,1,192,342)">
        <path d="M0,0L7,3L11,9L12,12L12,38L7,61L0,77L-9,90L-18,99L-28,105L-38,109L-42,110L-64,110L-77,106L-82,102L-79,100L-36,57L-25,43L-15,28L-5,10L0,0Z" style="fill:rgb(66,192,141);fill-rule:nonzero;"/>
    </g>
    <g transform="matrix(1,0,0,1,355,337)">
        <path d="M39,1L62,3L71,6L71,9L58,28L46,45L33,61L22,73L-23,118L-24,120L-33,117L-43,110L-48,105L-50,102L-45,101L-31,88L-23,81L-13,72L0,59L7,51L18,38L32,17L39,1Z" style="fill:rgb(253,219,45);fill-rule:nonzero;"/>
    </g>
    <g transform="matrix(1,0,0,1,542,103)">
        <path d="M0,0L1,0L1,21L-3,42L-10,61L-18,76L-29,90L-43,104L-58,115L-64,118L-64,102L-60,83L-54,67L-47,54L-39,43L-30,32L-16,17L-4,4L0,0Z" style="fill:rgb(252,253,253);fill-rule:nonzero;"/>
    </g>
    <g transform="matrix(1,0,0,1,339,337)">
        <path d="M0,0L16,1L11,14L2,29L-6,40L-15,51L-26,63L-35,72L-45,80L-47,79L-52,57L-53,47L-53,28L-49,16L-43,8L-34,4L-24,2L0,0Z" style="fill:rgb(254,64,92);fill-rule:nonzero;"/>
    </g>
    <g transform="matrix(1,0,0,1,154,338)">
        <path d="M11,0L16,0L31,2L38,4L36,10L26,29L14,47L5,58L-4,68L-43,107L-51,98L-56,86L-57,83L-41,70L-22,51L-13,40L-3,26L6,10L11,0Z" style="fill:rgb(253,219,45);fill-rule:nonzero;"/>
    </g>
    <g transform="matrix(1,0,0,1,276,245)">
        <path d="M0,0L7,0L13,16L26,55L22,57L-8,63L-15,65L-33,65L-45,63L-39,52L-26,32L-15,16L-7,6L0,0Z" style="fill:rgb(1,27,49);fill-rule:nonzero;"/>
    </g>
    <g transform="matrix(1,0,0,1,247,414)">
        <path d="M0,0L2,4L10,26L15,36L14,40L6,47L-24,77L-32,84L-43,77L-51,74L-49,69L-41,57L-27,37L-13,18L0,0Z" style="fill:rgb(1,27,49);fill-rule:nonzero;"/>
    </g>
    <g transform="matrix(1,0,0,1,190,555)">
        <path d="M0,0L15,0L22,4L27,11L28,14L28,25L24,36L15,46L7,51L4,52L-10,52L-18,47L-23,40L-24,35L-24,23L-20,14L-14,7L-6,2L0,0Z" style="fill:rgb(0,27,49);fill-rule:nonzero;"/>
    </g>
    <g transform="matrix(1,0,0,1,435,372)">
        <path d="M2,-1L2,4L1,15L-3,38L-8,55L-15,68L-24,78L-36,85L-51,89L-58,90L-74,90L-68,83L-56,70L-36,50L-29,42L-17,28L-8,15L-2,5L2,-1Z" style="fill:rgb(16,148,237);fill-rule:nonzero;"/>
    </g>
    <g transform="matrix(1,0,0,1,203,372)">
        <path d="M0,0L1,0L1,8L-4,31L-11,47L-20,60L-29,69L-39,75L-49,79L-53,80L-65,80L-59,72L-43,55L-31,43L-24,35L-11,19L-2,4L0,0Z" style="fill:rgb(16,147,236);fill-rule:nonzero;"/>
    </g>
    <g transform="matrix(1,0,0,1,125,337)">
        <path d="M0,0L6,0L5,6L-3,22L-13,35L-28,50L-33,52C-33.3,52.5 -33.6,54.1 -34,49L-34,18L-30,10L-24,5L-9,1L0,0Z" style="fill:rgb(252,64,93);fill-rule:nonzero;"/>
    </g>
    <g transform="matrix(1,0,0,1,78,557)">
        <path d="M0,0L4,2L11,13L16,25L19,38L19,61L16,77L11,73L4,62L-1,48L-3,38L-3,12L0,0Z" style="fill:rgb(1,26,47);fill-rule:nonzero;"/>
    </g>
</svg>
